<svg version="1.1" xmlns="http://www.w3.org/2000/svg" viewBox="0 0 1290.246283117813 621" width="1290.246283117813" height="621" filter="invert(93%) hue-rotate(180deg)">
  <!-- svg-source:excalidraw -->
  
  <defs>
    <style class="style-fonts">
      @font-face {
        font-family: "Virgil";
        src: url("https://excalidraw.com/Virgil.woff2");
      }
      @font-face {
        font-family: "Cascadia";
        src: url("https://excalidraw.com/Cascadia.woff2");
      }
      @font-face {
        font-family: "Assistant";
        src: url("https://excalidraw.com/Assistant-Regular.woff2");
      }
    </style>
    
  </defs>
  <rect x="0" y="0" width="1290.246283117813" height="621" fill="#ffffff"></rect><g stroke-linecap="round"><g transform="translate(323.68634659437544 134) rotate(0 165 -2.5)"><path d="M0.6 -1.13 C55.5 -1.74, 274.13 -3.42, 329.04 -3.96 M-0.55 0.89 C54.76 -0.01, 276.27 -4.33, 331.25 -5.53" stroke="#1e1e1e" stroke-width="2" fill="none"></path></g></g><mask></mask><g stroke-linecap="round"><g transform="translate(318.68634659437544 451) rotate(0 171.5 -3)"><path d="M-1.19 -0.63 C56.27 -1.53, 286.67 -3.97, 344.01 -4.84 M0.38 1.65 C57.84 0.4, 286.65 -5.34, 343.6 -6.35" stroke="#1e1e1e" stroke-width="2" fill="none"></path></g></g><mask></mask><g transform="translate(377.68634659437544 46.78898585972075) rotate(0 107.04999542236328 49.10550707013962)"><text x="107.04999542236328" y="0" font-family="Virgil, Segoe UI Emoji" font-size="78.56881131222336px" fill="#1e1e1e" text-anchor="middle" style="white-space: pre;" direction="ltr" dominant-baseline="text-before-edge">AUTH</text></g><g transform="translate(338.66950089125044 347.89449292986035) rotate(0 154.016845703125 49.10550707013961)"><text x="154.016845703125" y="0" font-family="Virgil, Segoe UI Emoji" font-size="78.56881131222336px" fill="#1e1e1e" text-anchor="middle" style="white-space: pre;" direction="ltr" dominant-baseline="text-before-edge">EVENTS</text></g><g stroke-linecap="round"><g transform="translate(323.68634659437544 132) rotate(0 -111 91.5)"><path d="M-0.22 0.31 C-37.39 30.82, -185.85 151.67, -222.97 182.06 M-1.79 -0.57 C-38.61 30.14, -184.31 152.38, -220.76 183.1" stroke="#1e1e1e" stroke-width="2" fill="none"></path></g></g><mask></mask><g stroke-linecap="round"><g transform="translate(314.68634659437544 453) rotate(0 -105.5 -69)"><path d="M-0.04 0.42 C-34.92 -22.86, -175.04 -116.13, -210.39 -139.16 M-1.51 -0.41 C-36.41 -23.63, -176.3 -115.58, -211.02 -138.23" stroke="#1e1e1e" stroke-width="2" fill="none"></path></g></g><mask></mask><g transform="translate(833.8803544679106 297) rotate(0 40.805992126464844 22.5)"><text x="40.805992126464844" y="0" font-family="Virgil, Segoe UI Emoji" font-size="36px" fill="#1e1e1e" text-anchor="middle" style="white-space: pre;" direction="ltr" dominant-baseline="text-before-edge">GET</text></g><g transform="translate(838.3043580689848 395) rotate(0 50.381988525390625 22.5)"><text x="50.381988525390625" y="0" font-family="Virgil, Segoe UI Emoji" font-size="36px" fill="#1e1e1e" text-anchor="middle" style="white-space: pre;" direction="ltr" dominant-baseline="text-before-edge">POST</text></g><g transform="translate(862.4643541016997 496) rotate(0 39.22199249267578 22.5)"><text x="39.22199249267578" y="0" font-family="Virgil, Segoe UI Emoji" font-size="36px" fill="#1e1e1e" text-anchor="middle" style="white-space: pre;" direction="ltr" dominant-baseline="text-before-edge">PUT</text></g><g transform="translate(847.9963670411528 566) rotate(0 75.68997955322266 22.5)"><text x="75.68997955322266" y="0" font-family="Virgil, Segoe UI Emoji" font-size="36px" fill="#1e1e1e" text-anchor="middle" style="white-space: pre;" direction="ltr" dominant-baseline="text-before-edge">DELETE</text></g><g transform="translate(761.1264100709379 95) rotate(0 259.5599365234375 22.5)"><text x="259.5599365234375" y="0" font-family="Virgil, Segoe UI Emoji" font-size="36px" fill="#1e1e1e" text-anchor="middle" style="white-space: pre;" direction="ltr" dominant-baseline="text-before-edge">/NEW POST (CREATE USER)</text></g><g transform="translate(755.3183961549223 10) rotate(0 208.36795043945312 22.5)"><text x="208.36795043945312" y="0" font-family="Virgil, Segoe UI Emoji" font-size="36px" fill="#1e1e1e" text-anchor="middle" style="white-space: pre;" direction="ltr" dominant-baseline="text-before-edge">POST LOGIN AN USER</text></g><g stroke-linecap="round"><g transform="translate(651.6863465943754 129) rotate(0 47.5 -4.5)"><path d="M-1.06 0.87 C14.81 -0.85, 79.87 -7.78, 95.86 -9.52 M0.59 0.28 C16.32 -1.36, 79.79 -6.78, 95.37 -8.26" stroke="#1e1e1e" stroke-width="2" fill="none"></path></g><g transform="translate(651.6863465943754 129) rotate(0 47.5 -4.5)"><path d="M68.21 4.48 C79.15 1.67, 86.41 -4.43, 95.37 -8.26 M68.21 4.48 C74.52 1.06, 82.08 -1.4, 95.37 -8.26" stroke="#1e1e1e" stroke-width="2" fill="none"></path></g><g transform="translate(651.6863465943754 129) rotate(0 47.5 -4.5)"><path d="M66.37 -15.96 C78.11 -11.55, 86.01 -10.44, 95.37 -8.26 M66.37 -15.96 C73.2 -14.28, 81.21 -11.62, 95.37 -8.26" stroke="#1e1e1e" stroke-width="2" fill="none"></path></g></g><mask></mask><g stroke-linecap="round"><g transform="translate(652.6863465943754 127) rotate(0 43.5 -44)"><path d="M-0.58 -0.61 C14.16 -15.38, 72.92 -73.42, 87.44 -87.99 M1.31 1.69 C16.02 -12.93, 72.68 -71.71, 86.72 -86.45" stroke="#1e1e1e" stroke-width="2" fill="none"></path></g><g transform="translate(652.6863465943754 127) rotate(0 43.5 -44)"><path d="M74.6 -59.01 C76.06 -64.14, 79.71 -71.54, 86.72 -86.45 M74.6 -59.01 C79.22 -66.89, 81.38 -74.91, 86.72 -86.45" stroke="#1e1e1e" stroke-width="2" fill="none"></path></g><g transform="translate(652.6863465943754 127) rotate(0 43.5 -44)"><path d="M59.8 -73.22 C64.53 -75.21, 71.37 -79.54, 86.72 -86.45 M59.8 -73.22 C68.69 -76.92, 75.23 -80.73, 86.72 -86.45" stroke="#1e1e1e" stroke-width="2" fill="none"></path></g></g><mask></mask><g stroke-linecap="round"><g transform="translate(664.6863465943754 445) rotate(0 77 -58)"><path d="M0.4 -1.07 C26.28 -20.46, 128.57 -97.25, 154.11 -116.23 M-0.85 0.98 C24.99 -18.24, 127.63 -95.2, 153.21 -114.81" stroke="#1e1e1e" stroke-width="2" fill="none"></path></g><g transform="translate(664.6863465943754 445) rotate(0 77 -58)"><path d="M136.93 -89.62 C138.38 -94.54, 143.06 -100.39, 153.21 -114.81 M136.93 -89.62 C142.72 -99.25, 149.82 -109.74, 153.21 -114.81" stroke="#1e1e1e" stroke-width="2" fill="none"></path></g><g transform="translate(664.6863465943754 445) rotate(0 77 -58)"><path d="M124.54 -105.98 C128.5 -107.67, 135.65 -110.23, 153.21 -114.81 M124.54 -105.98 C135.29 -109.26, 147.22 -113.37, 153.21 -114.81" stroke="#1e1e1e" stroke-width="2" fill="none"></path></g></g><mask></mask><g stroke-linecap="round"><g transform="translate(662.6863465943754 446) rotate(0 83 -13.5)"><path d="M1.15 -0.45 C29.09 -5.06, 139.13 -21.95, 166.61 -26.5 M0.3 -1.73 C28.22 -6.2, 138.48 -24.18, 165.99 -28.37" stroke="#1e1e1e" stroke-width="2" fill="none"></path></g><g transform="translate(662.6863465943754 446) rotate(0 83 -13.5)"><path d="M139.75 -13.82 C144.53 -16.2, 151.79 -20.27, 165.99 -28.37 M139.75 -13.82 C146.34 -17.34, 151.22 -19.98, 165.99 -28.37" stroke="#1e1e1e" stroke-width="2" fill="none"></path></g><g transform="translate(662.6863465943754 446) rotate(0 83 -13.5)"><path d="M136.54 -34.09 C142.22 -32.11, 150.17 -31.8, 165.99 -28.37 M136.54 -34.09 C143.89 -32.79, 149.53 -30.64, 165.99 -28.37" stroke="#1e1e1e" stroke-width="2" fill="none"></path></g></g><mask></mask><g stroke-linecap="round"><g transform="translate(665.6863465943754 446) rotate(0 90.5 36.5)"><path d="M1.18 -0.53 C31.29 11.45, 150.02 60.77, 179.89 72.92 M0.35 1.81 C30.88 14.51, 152.19 62.49, 182.02 74.42" stroke="#1e1e1e" stroke-width="2" fill="none"></path></g><g transform="translate(665.6863465943754 446) rotate(0 90.5 36.5)"><path d="M152.03 73.53 C158.22 71.59, 166.03 72.63, 182.02 74.42 M152.03 73.53 C159.69 72.79, 167.07 74.39, 182.02 74.42" stroke="#1e1e1e" stroke-width="2" fill="none"></path></g><g transform="translate(665.6863465943754 446) rotate(0 90.5 36.5)"><path d="M159.62 54.47 C164.18 57.09, 170.21 62.61, 182.02 74.42 M159.62 54.47 C165.33 58.56, 170.82 64.92, 182.02 74.42" stroke="#1e1e1e" stroke-width="2" fill="none"></path></g></g><mask></mask><g stroke-linecap="round"><g transform="translate(668.6863465943754 448) rotate(0 82.5 70.5)"><path d="M-0.39 -1.07 C26.91 22.26, 136.61 117.32, 164.24 140.83 M1.6 0.98 C29.25 24.43, 139.35 118.98, 166.56 142.28" stroke="#1e1e1e" stroke-width="2" fill="none"></path></g><g transform="translate(668.6863465943754 448) rotate(0 82.5 70.5)"><path d="M138.48 131.72 C146.22 134.11, 157.18 139.59, 166.56 142.28 M138.48 131.72 C145.29 134.61, 150 136.33, 166.56 142.28" stroke="#1e1e1e" stroke-width="2" fill="none"></path></g><g transform="translate(668.6863465943754 448) rotate(0 82.5 70.5)"><path d="M151.84 116.14 C155.18 123.73, 161.65 134.46, 166.56 142.28 M151.84 116.14 C155.66 122.35, 157.51 127.42, 166.56 142.28" stroke="#1e1e1e" stroke-width="2" fill="none"></path></g></g><mask></mask><g transform="translate(-9.829644616562064 265) rotate(271.7093817730476 66.28718261718745 44.5)"><text x="66.28718261718744" y="0" font-family="Virgil, Segoe UI Emoji" font-size="71.19999999999993px" fill="#1e1e1e" text-anchor="middle" style="white-space: pre;" direction="ltr" dominant-baseline="text-before-edge">API</text></g></svg>